<?xml version="1.0" encoding="utf-8"?>
<?xml-stylesheet type="text/xsl" href="rss1.xsl"?>
<rss version="2.0" xmlns:atom="http://www.w3.org/2005/Atom" xmlns:content="http://purl.org/rss/1.0/modules/content/" xmlns:dc="http://purl.org/dc/elements/1.1/" xmlns:media="http://search.yahoo.com/mrss/">
<channel>
 <title>Getty</title>
 <link>http://www.gettyimg.com/</link>
 <atom:link href="http://www.gettyimg.com/" rel="self" type="application/rss+xml" />

 
                <item>
                <title><![CDATA[【HD Live Performances】WEB-DL - Stephen Sanchez performs 'Until I Found You'  The One Show (1080)]]></title>
                <link><![CDATA[https://sharemania.us/threads/stephen-sanchez-performs-until-i-found-you-the-one-show-1080.229122/]]></link>
                <description><![CDATA[<article>
<blockquote class="messageText SelectQuoteContainer ugc baseHtml">
<div style="text-align: center"><img src="https://i.imgur.com/BUTdOgH.gif" class="bbCodeImage LbImage" alt="[​IMG]" data-url="https://i.imgur.com/BUTdOgH.gif" style=""><br>
<br>
​</div>
<div class="ToggleTriggerAnchor bbCodeSpoilerContainer">
<button type="button" class="button bbCodeSpoilerButton ToggleTrigger Tooltip JsOnly" data-target="> .SpoilerTarget"><span>Spoiler: <span class="SpoilerTitle">The One Show</span></span></button>
<div class="SpoilerTarget bbCodeSpoilerText">
<div class="bbCodeBlock bbCodeCode">
<div class="type">Code:</div>
<pre>Format                                   : MPEG-4
Format profile                           : Base Media
Codec ID                                 : isom (isom/iso2/avc1/mp41)
File size                                : 197 MiB
Duration                                 : 3 min 5 s
Overall bit rate                         : 8 930 kb/s
Collection                               : The One Show
Album                                    : The One Show
Album/Performer                          : BBC TV
Track name                               : 08/09/2023
Grouping                                 : Factual,Magazines &amp; Reviews,Entertainment,Arts, Culture &amp; the Media
Performer                                : BBC One
Composer                                 : BBC iPlayer
Genre                                    : Factual
ContentType                              : TV Show
Description                              : Davina McCall, Rupert Everett and Stephen Sanchez join Alex Jones and Lauren Laverne.
Recorded date                            : 2023-09-08T19:00:00+01:00
Writing application                      : Lavf57.26.100
Copyright                                : 2023 British Broadcasting Corporation, all rights reserved
Lyrics                                   : Davina McCall, Rupert Everett and singer Stephen Sanchez join Alex Jones and Lauren Laverne. /  / PLAY: https://www.bbc.co.uk/iplayer/episode/m001q978 /  / INFO: https://www.bbc.co.uk/programmes/m001q978
Comment                                  : Davina McCall, Rupert Everett and Stephen Sanchez join Alex Jones and Lauren Laverne.
LongDescription                          : Davina McCall, Rupert Everett and singer Stephen Sanchez join Alex Jones and Lauren Laverne. /  / PLAY: https://www.bbc.co.uk/iplayer/episode/m001q978 /  / INFO: https://www.bbc.co.uk/programmes/m001q978
Part_ID                                  : 202309081900
TVNetworkName                            : BBC One

Video
ID                                       : 1
Format                                   : AVC
Format/Info                              : Advanced Video Codec
Format profile                           : High@L4.2
Format settings                          : CABAC / 4 Ref Frames
Format settings, CABAC                   : Yes
Format settings, Reference frames        : 4 frames
Codec ID                                 : avc1
Codec ID/Info                            : Advanced Video Coding
Duration                                 : 3 min 5 s
Bit rate                                 : 8 796 kb/s
Width                                    : 1 920 pixels
Height                                   : 1 080 pixels
Display aspect ratio                     : 16:9
Frame rate mode                          : Constant
Frame rate                               : 50.000 FPS
Color space                              : YUV
Chroma subsampling                       : 4:2:0
Bit depth                                : 8 bits
Scan type                                : Progressive
Bits/(Pixel*Frame)                       : 0.085
Stream size                              : 194 MiB (98%)
Color range                              : Limited
Color primaries                          : BT.709
Transfer characteristics                 : BT.709
Matrix coefficients                      : BT.709
Codec configuration box                  : avcC

Audio
ID                                       : 2
Format                                   : AAC LC
Format/Info                              : Advanced Audio Codec Low Complexity
Codec ID                                 : mp4a-40-2
Duration                                 : 3 min 5 s
Bit rate mode                            : Constant
Bit rate                                 : 125 kb/s
Channel(s)                               : 2 channels
Channel layout                           : L R
Sampling rate                            : 48.0 kHz
Frame rate                               : 46.875 FPS (1024 SPF)
Compression mode                         : Lossy
Stream size                              : 2.77 MiB (1%)
Language                                 : English
Default                                  : Yes
Alternate group                          : 1</pre>
</div><div style="text-align: center">​</div></div>
</div><div style="text-align: center"><br>
<div class="bbCodeBlock bbCodeVfcHH HiddenContent">
<div class="attribution type">Hidden Content:</div>
<blockquote>You must reply before you can see the hidden data contained here.</blockquote>
</div><img src="https://i.imgur.com/Lf14fMx.png" class="bbCodeImage LbImage" alt="[​IMG]" data-url="https://i.imgur.com/Lf14fMx.png" style="">​</div>
<div class="messageTextEndMarker">&nbsp;</div>
</blockquote>
</article>]]></description>
                <author><![CDATA[fstambuk]]></author>
                </item>

                
                <item>
                <title><![CDATA[【HD Live Performances】WEB-RiP - Kelly Clarkson Live at Citi Concert Series in TODAY (1080)]]></title>
                <link><![CDATA[https://sharemania.us/threads/kelly-clarkson-live-at-citi-concert-series-in-today-1080.229121/]]></link>
                <description><![CDATA[<article>
<blockquote class="messageText SelectQuoteContainer ugc baseHtml">
<div style="text-align: center"><img src="https://i.imgur.com/lYfB1al.gif" class="bbCodeImage LbImage" alt="[​IMG]" data-url="https://i.imgur.com/lYfB1al.gif" style=""><br>
<br>
​</div>
<div class="ToggleTriggerAnchor bbCodeSpoilerContainer">
<button type="button" class="button bbCodeSpoilerButton ToggleTrigger Tooltip JsOnly" data-target="> .SpoilerTarget"><span>Spoiler: <span class="SpoilerTitle">TODAY</span></span></button>
<div class="SpoilerTarget bbCodeSpoilerText">
<div class="bbCodeBlock bbCodeCode">
<div class="type">Code:</div>
<pre>Format                                   : MPEG-4
Format profile                           : Base Media
Codec ID                                 : isom (isom/iso2/avc1/mp41)
File size                                : 1.06 GiB
Duration                                 : 15 min 3 s
Overall bit rate                         : 10.1 Mb/s
Writing application                      : Lavf57.26.100

Video
ID                                       : 1
Format                                   : AVC
Format/Info                              : Advanced Video Codec
Format profile                           : High@L4
Format settings                          : CABAC / 3 Ref Frames
Format settings, CABAC                   : Yes
Format settings, Reference frames        : 3 frames
Codec ID                                 : avc1
Codec ID/Info                            : Advanced Video Coding
Duration                                 : 15 min 3 s
Bit rate                                 : 9 954 kb/s
Width                                    : 1 920 pixels
Height                                   : 1 080 pixels
Display aspect ratio                     : 16:9
Frame rate mode                          : Variable
Frame rate                               : 29.970 (29970/1000) FPS
Minimum frame rate                       : 27.240 FPS
Maximum frame rate                       : 29.970 FPS
Color space                              : YUV
Chroma subsampling                       : 4:2:0
Bit depth                                : 8 bits
Scan type                                : Progressive
Bits/(Pixel*Frame)                       : 0.160
Stream size                              : 1.05 GiB (99%)
Color range                              : Limited
Color primaries                          : BT.709
Transfer characteristics                 : BT.709
Matrix coefficients                      : BT.709
Codec configuration box                  : avcC

Audio
ID                                       : 2
Format                                   : AAC LC
Format/Info                              : Advanced Audio Codec Low Complexity
Codec ID                                 : mp4a-40-2
Duration                                 : 15 min 3 s
Bit rate mode                            : Constant
Bit rate                                 : 96.0 kb/s
Channel(s)                               : 2 channels
Channel layout                           : L R
Sampling rate                            : 48.0 kHz
Frame rate                               : 46.875 FPS (1024 SPF)
Compression mode                         : Lossy
Stream size                              : 10.3 MiB (1%)
Default                                  : Yes
Alternate group                          : 1

Text #1
ID                                       : 1-CC1
Format                                   : EIA-608
Muxing mode                              : SCTE 128 / DTVCC Transport
Muxing mode, more info                   : Muxed in Video #1
Duration                                 : 15 min 3 s
Bit rate mode                            : Constant
Stream size                              : 0.00 Byte (0%)
CaptionServiceName                       : CC1

Text #2
ID                                       : 1-1
Format                                   : EIA-708
Muxing mode                              : SCTE 128 / DTVCC Transport
Muxing mode, more info                   : Muxed in Video #1
Duration                                 : 15 min 3 s
Bit rate mode                            : Constant
Stream size                              : 0.00 Byte (0%)</pre>
</div><div style="text-align: center">​</div></div>
</div><div style="text-align: center"><br>
<br>
<div class="bbCodeBlock bbCodeVfcHH HiddenContent">
<div class="attribution type">Hidden Content:</div>
<blockquote>You must reply before you can see the hidden data contained here.</blockquote>
</div><img src="https://media-cldnry.s-nbcnews.com/image/upload/rockcms/2023-09/CCSKellyClarksonLandingPageHeader-022e0a.png" class="bbCodeImage LbImage" alt="[​IMG]" data-url="https://media-cldnry.s-nbcnews.com/image/upload/rockcms/2023-09/CCSKellyClarksonLandingPageHeader-022e0a.png" style="">​</div>
<div class="messageTextEndMarker">&nbsp;</div>
</blockquote>
</article>]]></description>
                <author><![CDATA[fstambuk]]></author>
                </item>

                </channel></rss>